<svg aria-hidden="true" style="width:0;height:0;position:absolute;overflow:hidden" xmlns="http://www.w3.org/2000/svg"><defs><symbol id="moon" viewBox="0 0 32 32"><path fill="none" stroke="#fff" style="stroke:var(--color1,#fff)" stroke-linejoin="round" stroke-linecap="round" stroke-width="3" d="M2.189 16.585c.516 7.14 6.773 12.949 14.261 13.269 5.282.22 10.007-2.163 12.843-5.92 1.173-1.54.544-2.566-1.417-2.219-.96.166-1.948.235-2.978.192-7.002-.277-12.73-5.946-12.757-12.642v-.1c0-1.798.396-3.504 1.104-5.035l-.031.074c.772-1.717-.158-2.537-1.948-1.801-5.67 2.315-9.549 7.846-9.077 14.18z"/></symbol><symbol id="sun" viewBox="0 0 32 32"><path fill="none" stroke="#fff" style="stroke:var(--color1,#fff)" stroke-linejoin="round" stroke-linecap="round" stroke-width="3" d="M16 26c5.523 0 10-4.477 10-10S21.523 6 16 6v0C10.477 6 6 10.477 6 16s4.477 10 10 10v0z"/><path fill="none" stroke="#fff" style="stroke:var(--color1,#fff)" stroke-linejoin="round" stroke-linecap="round" stroke-width="4" d="m25.814 6.186.182-.182M6.004 25.996l.182-.182M16 2.112V2m0 28v-.112M2.112 16H2m28 0h-.112M6.186 6.186l-.182-.182m19.992 19.992-.182-.182"/></symbol><symbol id="ball" viewBox="0 0 32 32"><path fill="#fff" style="fill:var(--color1,#fff)" d="M27.292 4.708c-6.261-6.26-16.391-6.279-22.628-.043s-6.217 16.366.043 22.628c6.261 6.26 16.391 6.279 22.628.043s6.217-16.366-.043-22.628z"/><path fill="none" stroke="#F84119" stroke-opacity=".9" style="stroke:var(--color2,#f84119)" stroke-linecap="round" stroke-width="2.133" d="M6.798 6.354c-5.12 5.47-5.1 14.359.043 19.854"/></symbol><symbol id="close"><path d="M8 .806 7.194 0 4 3.194.806 0 0 .806 3.194 4 0 7.194.806 8 4 4.806 7.194 8 8 7.194 4.806 4 8 .806Z"/></symbol><symbol id="spotlight" viewBox="0 0 32 32"><path stroke-linejoin="round" stroke-linecap="round" stroke-width="2.08" d="m14.667 25.333.131.001c5.891 0 10.667-4.776 10.667-10.667S20.689 4 14.798 4l-.138.001h.007C8.832 4.075 4.13 8.822 4.13 14.667S8.832 25.26 14.66 25.333h.007zM28 28l-5.8-5.8"/></symbol><symbol id="icon-heart" viewBox="0 0 32 32"><path fill="#b92f2c" style="fill:var(--color2,#b92f2c)" d="m16 30.583-2.24-2.24C5.44 20.983 0 16.023 0 9.943c0-4.96 3.84-8.8 8.8-8.8 2.72 0 5.44 1.28 7.2 3.36 1.76-2.08 4.48-3.36 7.2-3.36 4.96 0 8.8 3.84 8.8 8.8 0 6.08-5.44 11.04-13.76 18.4L16 30.583z"/></symbol><symbol id="icon-facebook" viewBox="0 0 32 32"><path fill="#f4f4fd" d="M21.329 5.313h2.921V.225C23.746.156 22.013 0 19.994 0c-4.212 0-7.097 2.649-7.097 7.519V12H8.249v5.688h4.648V32h5.699V17.689h4.46l.708-5.688h-5.169V8.082c.001-1.644.444-2.769 2.735-2.769z" style="fill:var(--color3,#f4f4fd)"/></symbol><symbol id="icon-github" viewBox="0 0 32 32"><path d="M16 3C8.82 3 3 8.82 3 16c0 6.139 4.256 11.28 9.977 12.643a12.435 12.435 0 0 1-.971-.265l.093.026v-2.979s-.488.163-1.137.163c-1.819 0-2.574-1.622-2.762-2.438a2.529 2.529 0 0 0-.734-1.255c-.383-.342-.563-.343-.566-.46-.005-.245.329-.235.487-.235.813 0 1.428.864 1.714 1.311.709 1.104 1.469 1.288 1.861 1.288.488 0 .909-.073 1.198-.213.134-.944.554-1.785 1.239-2.387-3.049-.61-5.2-2.358-5.2-5.2 0-1.464.588-2.809 1.566-3.896-.1-.284-.267-.857-.267-1.791 0-.617.043-1.376.325-2.113 0 0 1.854.013 3.603 1.669.807-.235 1.671-.369 2.572-.369s1.766.134 2.572.369c1.748-1.656 3.602-1.669 3.602-1.669.284.737.325 1.495.325 2.113 0 1.008-.134 1.595-.216 1.848.949 1.076 1.516 2.401 1.516 3.839 0 2.842-2.151 4.59-5.2 5.2.814.715 1.3 1.756 1.3 2.925v4.279c-.288.09-.581.169-.878.239 5.721-1.363 9.977-6.505 9.977-12.643 0-7.18-5.82-13-13-13z"/></symbol><symbol id="icon-linkedin" viewBox="0 0 32 32"><path fill="#f4f4fd" d="M31.992 32H32V20.263c0-5.741-1.236-10.164-7.948-10.164-3.227 0-5.392 1.771-6.276 3.449h-.093v-2.913h-6.364V32h6.627V21.421c0-2.785.528-5.479 3.977-5.479 3.399 0 3.449 3.179 3.449 5.657v10.4h6.62zM.528 10.636h6.635V32H.528V10.636zM3.843 0A3.845 3.845 0 0 0 0 3.843c0 2.121 1.721 3.879 3.843 3.879s3.843-1.757 3.843-3.879A3.846 3.846 0 0 0 3.843 0z" style="fill:var(--color3,#f4f4fd)"/></symbol><symbol id="search-icon-dark" viewBox="0 0 32 32"><path stroke-linejoin="round" stroke-linecap="round" stroke-width="2.08" d="M14.667 25.333c5.891 0 10.667-4.776 10.667-10.667S20.558 3.999 14.667 3.999 4 8.775 4 14.666s4.776 10.667 10.667 10.667zM28 28l-5.8-5.8"/></symbol><symbol id="search-icon-light" viewBox="0 0 32 32"><path fill="none" stroke="#fff" style="stroke:var(--color1,#fff)" stroke-linejoin="round" stroke-linecap="round" stroke-width="2.08" d="m14.667 25.333.131.001c5.891 0 10.667-4.776 10.667-10.667S20.689 4 14.798 4l-.138.001h.007C8.832 4.075 4.13 8.822 4.13 14.667S8.832 25.26 14.66 25.333h.007zM28 28l-5.8-5.8"/></symbol></defs></svg>