<svg aria-hidden="true" style="position: absolute; width: 0; height: 0; overflow: hidden;" version="1.1" xmlns="http://www.w3.org/2000/svg" xmlns:xlink="http://www.w3.org/1999/xlink">
<defs>
<symbol id="moon" viewBox="0 0 32 32">
<path fill="none" stroke="#fff" style="stroke: var(--color1, #fff)" stroke-linejoin="round" stroke-linecap="round" stroke-miterlimit="4" stroke-width="3" d="M2.189 16.585c0.516 7.14 6.773 12.949 14.261 13.269 5.282 0.22 10.007-2.163 12.843-5.92 1.173-1.54 0.544-2.566-1.417-2.219-0.96 0.166-1.948 0.235-2.978 0.192-7.002-0.277-12.73-5.946-12.757-12.642-0-0.030-0-0.065-0-0.1 0-1.798 0.396-3.504 1.104-5.035l-0.031 0.074c0.772-1.717-0.158-2.537-1.948-1.801-5.67 2.315-9.549 7.846-9.077 14.18z"></path>
</symbol>

<symbol id="sun" viewBox="0 0 32 32">
<path fill="none" stroke="#fff" style="stroke: var(--color1, #fff)" stroke-linejoin="round" stroke-linecap="round" stroke-miterlimit="4" stroke-width="3" d="M16 26c5.523 0 10-4.477 10-10s-4.477-10-10-10v0c-5.523 0-10 4.477-10 10s4.477 10 10 10v0z"></path>
<path fill="none" stroke="#fff" style="stroke: var(--color1, #fff)" stroke-linejoin="round" stroke-linecap="round" stroke-miterlimit="4" stroke-width="4" d="M25.814 6.186l0.182-0.182M6.004 25.996l0.182-0.182M16 2.112v-0.112M16 30v-0.112M2.112 16h-0.112M30 16h-0.112M6.186 6.186l-0.182-0.182M25.996 25.996l-0.182-0.182"></path>
</symbol>

<symbol id="ball" viewBox="0 0 32 32">
<path fill="#fff" style="fill: var(--color1, #fff)" d="M27.292 4.708c-6.261-6.26-16.391-6.279-22.628-0.043s-6.217 16.366 0.043 22.628c6.261 6.26 16.391 6.279 22.628 0.043s6.217-16.366-0.043-22.628z"></path>
<path fill="none" stroke="#F84119" stroke-opacity="0.9" style="stroke: var(--color2, #F84119)" stroke-linejoin="miter" stroke-linecap="round" stroke-miterlimit="4" stroke-width="2.1333" d="M6.798 6.354c-5.12 5.47-5.1 14.359 0.043 19.854"></path>
</symbol>

<symbol id="close" width="12" height="12">
<!-- <path d="M11.25 11.25L0.75 0.75M11.25 0.75L0.75 11.25" stroke="white" stroke-linecap="round" stroke-linejoin="round"/> -->
<path d="M8 .806 7.194 0 4 3.194.806 0 0 .806 3.194 4 0 7.194.806 8 4 4.806 7.194 8 8 7.194 4.806 4 8 .806Z"/>
</symbol>

<symbol id="spotlight" viewBox="0 0 32 32">
<path stroke-linejoin="round" stroke-linecap="round" stroke-miterlimit="4" stroke-width="2.0800" d="M14.667 25.333c0.039 0 0.085 0.001 0.131 0.001 5.891 0 10.667-4.776 10.667-10.667s-4.776-10.667-10.667-10.667c-0.046 0-0.092 0-0.138 0.001l0.007-0c-5.835 0.074-10.537 4.821-10.537 10.666s4.702 10.593 10.53 10.666l0.007 0zM28 28l-5.8-5.8"></path>
</symbol>

<symbol id="icon-heart" viewBox="0 0 32 32">
<path fill="#b92f2c" style="fill: var(--color2, #b92f2c)" d="M16 30.583l-2.24-2.24c-8.32-7.36-13.76-12.32-13.76-18.4 0-4.96 3.84-8.8 8.8-8.8 2.72 0 5.44 1.28 7.2 3.36 1.76-2.080 4.48-3.36 7.2-3.36 4.96 0 8.8 3.84 8.8 8.8 0 6.080-5.44 11.040-13.76 18.4l-2.24 2.24z"></path>
</symbol>

<symbol id="search-icon-dark" viewBox="0 0 32 32">
<path stroke-linejoin="round" stroke-linecap="round" stroke-miterlimit="4" stroke-width="2.0800" d="M14.667 25.333c5.891 0 10.667-4.776 10.667-10.667s-4.776-10.667-10.667-10.667c-5.891 0-10.667 4.776-10.667 10.667s4.776 10.667 10.667 10.667z"></path>
<path stroke-linejoin="round" stroke-linecap="round" stroke-miterlimit="4" stroke-width="2.0800" d="M28 28l-5.8-5.8"></path>
</symbol>

<symbol id="search-icon-light" viewBox="0 0 32 32">
<path fill="none" stroke="#fff" style="stroke: var(--color1, #fff)" stroke-linejoin="round" stroke-linecap="round" stroke-miterlimit="4" stroke-width="2.0800" d="M14.667 25.333c0.039 0 0.085 0.001 0.131 0.001 5.891 0 10.667-4.776 10.667-10.667s-4.776-10.667-10.667-10.667c-0.046 0-0.092 0-0.138 0.001l0.007-0c-5.835 0.074-10.537 4.821-10.537 10.666s4.702 10.593 10.53 10.666l0.007 0zM28 28l-5.8-5.8"></path>
</symbol>
</defs>
</svg>
